<?xml version="1.0" encoding="UTF-8" standalone="no"?>
<svg
   viewBox="0 0 28.096786 29.175"
   version="1.1"
   id="svg847"
   sodipodi:docname="shutter-close-0.svg"
   inkscape:version="1.2.1 (9c6d41e, 2022-07-14)"
   width="28.096786"
   height="29.174999"
   xmlns:inkscape="http://www.inkscape.org/namespaces/inkscape"
   xmlns:sodipodi="http://sodipodi.sourceforge.net/DTD/sodipodi-0.dtd"
   xmlns="http://www.w3.org/2000/svg"
   xmlns:svg="http://www.w3.org/2000/svg">
  <defs
     id="defs851" />
  <sodipodi:namedview
     id="namedview849"
     pagecolor="#ffffff"
     bordercolor="#000000"
     borderopacity="0.25"
     inkscape:showpageshadow="2"
     inkscape:pageopacity="0.0"
     inkscape:pagecheckerboard="0"
     inkscape:deskcolor="#d1d1d1"
     showgrid="false"
     inkscape:zoom="12.897074"
     inkscape:cx="11.281629"
     inkscape:cy="18.453799"
     inkscape:window-width="1512"
     inkscape:window-height="916"
     inkscape:window-x="1291"
     inkscape:window-y="1118"
     inkscape:window-maximized="0"
     inkscape:current-layer="svg847" />
  <path
     id="path845"
     style="display:inline;stroke-width:1.49702"
     d="M -0.0390625 0.025390625 L -0.0390625 29.21875 L 2.9550781 29.21875 L 2.9140625 2.9609375 L 25.125 2.9609375 L 25.125 29.21875 L 28.119141 29.21875 L 28.119141 0.025390625 L -0.0390625 0.025390625 z M 4.4570312 4.2207031 L 4.4570312 7.2148438 L 23.632812 7.2148438 L 23.632812 4.2207031 L 4.4570312 4.2207031 z M 4.4511719 8.453125 L 4.4511719 11.447266 L 23.628906 11.447266 L 23.628906 8.453125 L 4.4511719 8.453125 z M 4.4511719 12.943359 L 4.4511719 15.9375 L 23.628906 15.9375 L 23.628906 12.943359 L 4.4511719 12.943359 z M 4.4511719 17.433594 L 4.4511719 20.427734 L 23.628906 20.427734 L 23.628906 17.433594 L 4.4511719 17.433594 z M 4.4511719 21.925781 L 4.4511719 24.919922 L 23.628906 24.919922 L 23.628906 21.925781 L 4.4511719 21.925781 z M 4.4511719 26.224609 L 4.4511719 29.21875 L 23.628906 29.21875 L 23.628906 26.224609 L 4.4511719 26.224609 z " />
</svg>
